<?xml version="1.0" encoding="utf-8"?>
<!-- Svg Vector Icons : http://www.onlinewebfonts.com/icon -->
<!DOCTYPE svg PUBLIC "-//W3C//DTD SVG 1.1//EN" "http://www.w3.org/Graphics/SVG/1.1/DTD/svg11.dtd">
<svg version="1.1" xmlns="http://www.w3.org/2000/svg" xmlns:xlink="http://www.w3.org/1999/xlink" x="0px" y="0px" viewBox="0 0 256 256" enable-background="new 0 0 256 256" xml:space="preserve">
<metadata> Svg Vector Icons : http://www.onlinewebfonts.com/icon </metadata>
<g> <path fill="#d0e291" d="M182,31.8l-58.8-18.4L64.8,36.2L22.6,79.8l-5.4,52.4v12.2"/> <path fill="#a1cd6a" d="M188,78.1l-17.6-19.9L137,53.5l-28.6-9.2L77.2,71.6l-23.5,6.5l-21.2,29.5l0.8,22.7l-7.4,4.6l-8.5,17l2.9,37 l15.7,19.4l8.3,17.7l17.3,2.5"/> <path fill="#d0e291" d="M199.4,49.8c-1.9-2.3-3.9-4.6-6-6.8c-12.4-6-26.2-9.3-40.9-9.3c-32.4,0-60.9,16.4-77.8,41.3 c-20.6,17.2-33.7,43.1-33.7,72.1c0,2.9,0.1,5.7,0.4,8.5L219,188.9c14-16.4,22.3-37.6,22.3-60.8C241.4,95.4,224.7,66.7,199.4,49.8z" /> <path fill="#a1cd6a" d="M88,228.6c-10.5-0.4-20.1-4.5-27.6-10.8c-0.4,3.2-1.3,6.8,1.3,6.1c4,10.9,16.4,15,29.9,16.6 c-0.1-0.3-0.3-0.6-0.4-0.9C86.7,240.7,92.9,228.8,88,228.6z M58.4,213c-1.1,0-2.1-0.1-3.2-0.2c1.6,1.8,3.3,3.5,5.1,5 C60.6,215.3,60.6,213.1,58.4,213z"/> <path fill="#a1cd6a" d="M132.8,238.1c13.8-5.6,28.5-8.5,43.4-8.5h0.5c22.4-0.3,40.8-18.5,41.3-41c0.1-3.5-0.3-7-1-10.3 c-2.3-10-1.4-20.3,2-30c1.5-4.2,2.2-8.6,2.2-13.3c0-17.3-10.8-32.1-26.1-37.9c-3-1.1-5-4.1-5-7.3v-0.1c0-7.2-2.2-13.9-5.8-19.4 c-0.6,0-1.1,0-1.7,0.1c-9.5,0.5-18.9-1.6-27.6-5.4c-3.9-1.7-8.1-2.6-12.6-2.6c-13.6,0-25.2,8.6-29.5,20.7c-0.9,2.5-3.2,4.1-5.8,4.1 h-0.2c-25.3,0-45.8,20.5-45.8,45.8c0,4.5,0.6,8.8,1.8,12.9c-11.7,8.7-19.1,22.8-18.5,38.6c0.4,10.7,4.5,20.5,11.1,28.1 c1,0.1,2.1,0.2,3.2,0.2c2.1,0.1,2.2,2.3,1.9,4.8c7.5,6.4,17.1,10.4,27.6,10.8c4.9,0.2-1.3,12.2,3.2,10.9c0.1,0.3,0.2,0.6,0.4,0.9 c8.1,0.9,16.7,0.9,24.1,0.9C121.7,241.4,127.5,240.2,132.8,238.1L132.8,238.1z"/> <path fill="#ffffff" d="M105.4,160.4c0.5-4.8,0.8-11.9-0.5-20.1c-1,1.4-2,2.8-2.9,4.2c-1.2-8.7-5.8-21.3-15.4-31.6 c-2.8-2.9-7.5,0.4-5.6,4c9.4,17.7,9.3,34.6,8.3,43.5c-1.3,1.5-2.5,2.9-3.8,4.3c2.4,4.1,3.5,8.7,4,12.4 C94.7,172.1,100,166.5,105.4,160.4L105.4,160.4z M139.5,107.6c0.9-6.1,1.4-12.4,1.4-18.8c0-5.7-8-7-9.7-1.5 c-4.8,14.9-11.1,28.4-18.3,40.6c2.9,6,4.6,11.9,5.2,16.6C125.9,133.6,133.3,121.3,139.5,107.6L139.5,107.6z M52.1,205.9 c0,0,7.3-3.4,22.3-15.6c0.7-3.5,1.6-9.2,1.2-15.6c-0.8,0.8-1.6,1.6-2.4,2.3c-0.7-5-2.5-11.6-7.1-16.4c-3.5-3.7-9.6-0.2-8.2,4.7 c2.7,9.7,1.3,19.8,0.2,25c-15,12.2-22.3,15.6-22.3,15.6c-1.8,10.9,10.2,23.6,25.4,22.6c1.1-0.8,2.2-1.7,3.3-2.6 C56.2,221.9,50.9,213.5,52.1,205.9L52.1,205.9z"/> <path fill="#d0e291" d="M169.2,183.2c-0.8-0.9-2.1-1.5-3.7-1.3c-7.7,0.9-14.5,1.5-20.5,1.8c-19.5,0.8-31-1.4-36.9-3.2 c6.3-8.6,12.1-17.9,17-27.7c10.8-3,25.4-7.9,36.6-20.5c0.3-0.3,0.5-0.6,0.6-0.9c1.2-2.7-1.8-6-4.8-4.4c-2.4,1.2-4.7,2.2-7,3.1 c-7,2.5-13.3,3.2-17.2,3.3c2.8-8.3,5-16.9,6.3-25.8c-6.1,13.7-13.5,26-21.5,36.9c-0.7-4.7-2.3-10.6-5.2-16.6 c-2.6,4.3-5.2,8.4-7.9,12.4c1.3,8.2,1,15.3,0.5,20.1c-5.3,6.1-10.7,11.7-15.9,16.7c-0.5-3.7-1.6-8.3-4-12.4 c-3.3,3.6-6.5,7-9.7,10.1c0.3,6.3-0.5,12.1-1.3,15.6c-15,12.2-22.3,15.6-22.3,15.6c-1.2,7.5,4.1,15.9,12.6,20.1 c9.8-7.8,17.8-15.4,28.2-26.9c4.4,0.3,9.7,0.6,15.6,0.6c2.7,0,5.5,0,8.4-0.1c16-0.6,34.8-3,50.8-9.4 C170.9,188.9,171,185.2,169.2,183.2L169.2,183.2z"/> <path fill="#a1cd6a" d="M62.7,145.9c-1.2-4.1-1.8-8.4-1.8-12.9c0-25.3,20.5-45.8,45.8-45.8h0.2c2.6,0,4.9-1.6,5.8-4.1 c4.4-12.1,15.9-20.7,29.5-20.7c4.5,0,8.7,0.9,12.6,2.6c8.7,3.8,18.1,5.9,27.6,5.4c0.6,0,1.1,0,1.7-0.1c-6.3-9.4-17-15.6-29.2-15.6 c-0.7,0-1.4,0-2,0.1c-9.5,0.5-18.9-1.6-27.6-5.4c-3.9-1.7-8.1-2.6-12.6-2.6c-13.6,0-25.2,8.6-29.5,20.7c-0.9,2.5-3.2,4.1-5.8,4.1 h-0.2c-25.3,0-45.8,20.5-45.8,45.8c0,4.5,0.6,8.8,1.8,12.9C21.4,139,14,153.1,14.6,168.9c0.9,22.6,18.4,41.2,40.6,43.7 c-6.6-7.6-10.7-17.4-11.1-28.1C43.5,168.8,50.9,154.7,62.7,145.9z"/> <path fill="#d0e291" d="M132.6,84.9l-30.7,59.5l-13.8-29.8l1.7,34.2l-1.7,15.5l-13.9,8.4l-13.7-13.7l-2.2,31.2L36,205.9l5.1,14.5 l16.8,8.2L134.9,128l5.9-39.2"/> <path fill="#040000" d="M246,128.1c0-32.8-16.2-63.3-43.4-81.7C183.8,23.2,155.9,10,126.1,10c-10,0-19.9,1.5-29.4,4.5 c-2.4,0.7-3.8,3.3-3,5.8c0.7,2.4,3.3,3.8,5.8,3c8.6-2.7,17.6-4.1,26.7-4.1c24.7,0,47.9,10,64.7,27.8c-0.9,4.6-3.1,7.6-6.6,9.2 c-2.7,1.2-5.4,2-5.4,2c-6.7-5.1-15-8.1-24-8.1c-0.7,0-1.5,0-2.3,0.1c-8.3,0.5-16.9-1.2-25.5-5c-4.6-2-9.4-3-14.4-3 c-14.3,0-27.3,8.5-33,21.5c-1.9-1.1-5.1-3.5-7.9-7.7c-1.4-2.1-4.3-2.7-6.4-1.3c-2.1,1.4-2.7,4.3-1.3,6.4c1.8,2.7,3.7,4.8,5.5,6.6 c-24.3,3.6-43,24.6-43,49.9c0,3.7,0.4,7.5,1.2,11.1c-3.1,2.6-5.9,5.6-8.2,8.9c-0.3-3.1-0.5-6.3-0.5-9.4c0-26.5,11.7-51.5,32.1-68.5 c0.3-0.3,0.6-0.6,0.8-0.9c4.8-7.1,10.5-13.4,17.1-18.8c2-1.6,2.2-4.5,0.6-6.5c-1.6-2-4.5-2.2-6.5-0.6c-7.1,5.8-13.3,12.6-18.5,20.2 C22.7,71.6,10,98.9,10,128c0,7.8,0.9,15.5,2.7,22.9c-1.8,5.2-2.7,10.6-2.7,16.2c0,16.5,7.9,31.7,21.2,41.1c0,5.3,2.3,10.6,6.4,15.2 c5.6,6.2,13.8,9.8,22.2,9.8h0C76.3,246,97.2,246,115.6,246c6.6,0,12.9-1.3,19-3.7c13.4-5.4,27.3-8.2,41.4-8.2h0.7 c12.1-0.1,23.4-4.9,32.1-13.5c7.8-7.8,12.6-17.8,13.6-28.6l0.1-0.1C237.7,174.1,246,151.4,246,128.1L246,128.1z M198.1,54.5 c24.3,16.7,38.7,44.1,38.7,73.6c0,17.8-5.3,35.2-15.2,49.9c0-0.2-0.1-0.4-0.1-0.6c-2-8.7-1.4-18.2,1.8-27.4 c1.7-4.7,2.5-9.7,2.5-14.8c0-9.3-2.8-18.3-8.2-25.9c-5.2-7.4-12.4-13.1-20.9-16.3c-1.3-0.5-2.1-1.7-2.1-3v-0.1 c0-9.2-3.1-17.6-8.4-24.4C190.6,63.8,195.3,60.6,198.1,54.5L198.1,54.5z M44.4,217.3c-2.4-2.6-3.8-5.7-4-8.5 c3.4-2,10.3-6.4,20.7-14.9c0.8-0.7,1.4-1.6,1.6-2.6c1.2-5.6,2.7-16.6-0.3-27.2c0-0.2,0-0.2,0-0.2c0.1-0.1,0.3-0.2,0.3-0.2 c0,0,0,0,0.1,0.1c3.9,4,5.3,9.8,5.8,13.9c0.2,1.7,1.4,3.2,3,3.7c1.6,0.6,3.4,0.2,4.7-1c5.7-5.4,11.1-11.1,16.2-17 c0.6-0.7,1-1.6,1.1-2.5c0.8-7.7,1.1-21.7-4.8-37.3c4.9,7.6,7.5,15.6,8.3,21.5c0.3,1.9,1.6,3.4,3.4,3.8c1.8,0.4,3.7-0.2,4.8-1.8 c13.3-18.4,23.4-38.1,29.9-58.5c0.1-0.2,0.1-0.2,0.2-0.3c0.2,0,0.5,0.1,0.5,0.1c0,0,0,0.1,0,0.2c-0.1,14.4-2.6,28.9-7.4,43.1 c-0.5,1.5-0.2,3,0.7,4.3c0.9,1.2,2.4,1.9,3.9,1.9c4.3-0.2,12-1,20.3-4.3c-9.2,8.1-20.1,12-29.9,14.6c-1.3,0.3-2.3,1.2-2.9,2.4 c-4.5,9.1-10.1,18.2-16.6,27c-0.9,1.2-1.1,2.8-0.6,4.2s1.6,2.5,3,2.9c7.5,2.3,24.9,5.6,57.1,1.9c-21.9,8.1-50.6,9.4-70.6,7.8 c-1.4-0.1-2.8,0.4-3.8,1.5c-10.7,11.9-18.9,19.6-29.7,27.9C54,224,48.3,221.5,44.4,217.3L44.4,217.3z M213.4,188.5 c-0.4,19.9-16.9,36.2-36.8,36.5H176c-15.3,0-30.4,3-44.9,8.9c-4.9,2-10.1,3-15.5,3c-15.5,0-33,0-46.6-8.4 c8.9-7.2,16.6-14.6,25.7-24.5c12.8,0.8,46.7,1.7,74.6-9.5c4.2-1.7,6.5-6.1,5.3-10.5c-1.1-4.4-5.2-7.2-9.8-6.7 c-24.7,3.1-40.2,2-49.2,0.3c4.7-6.9,8.9-13.9,12.5-20.9c11.6-3.3,25.8-8.9,36.8-21.3c2.6-2.9,2.8-7.2,0.3-10.3 c-2.4-3.1-6.6-4-10.1-2.2c-5.6,2.9-11.1,4.4-15.6,5.2c3.8-13,5.7-26.1,5.8-39.3c0-4.8-3.3-8.7-8.1-9.5c-4.8-0.7-9.2,1.9-10.6,6.6 c-5.2,16.5-12.9,32.4-22.8,47.6c-2.2-6.7-6.4-15.5-14-23.6c-2.8-3-7.3-3.4-10.6-1c-3.3,2.4-4.4,6.7-2.4,10.3 c8.4,15.8,8.7,31,8,39.4c-2.8,3.2-5.8,6.4-8.9,9.6c-1.3-3.6-3.3-7.4-6.3-10.6c-3.1-3.2-7.7-3.9-11.6-1.7c-3.9,2.2-5.6,6.6-4.4,10.9 c2.2,7.8,1.4,16.1,0.5,21.2c-8.9,7.2-14.9,11-17.8,12.8c-10.7-7.8-17-20.1-17-33.4c0-4.9,0.8-9.6,2.4-14c0.1-0.2,0.2-0.5,0.3-0.7 c2-5.3,5.1-10.1,9.2-14.2c4.1,8.6,10.8,12.8,11.1,13.1c0.8,0.5,1.6,0.7,2.5,0.7c1.5,0,3-0.8,3.9-2.2c1.4-2.2,0.7-5-1.5-6.4 c-0.1,0-7.3-4.8-9.5-14.2c0,0,0-0.1,0-0.1c0-0.1,0-0.1,0-0.2c-1.1-3.8-1.7-7.6-1.7-11.6c0-22.7,18.5-41.2,41.2-41.2h0.2 c4.5,0,8.6-2.9,10.1-7.2c3.8-10.6,14-17.7,25.2-17.7c3.7,0,7.3,0.7,10.7,2.2c10,4.4,20,6.3,29.7,5.7c0.6,0,1.2,0,1.8,0 c16.8,0,30.4,13.6,30.4,30.4v0.1c0,5.2,3.1,9.8,8,11.6c13.9,5.3,23.1,18.8,23.1,33.6c0,4-0.7,8-2,11.8c-3.7,10.9-4.5,22.1-2.1,32.5 C213.1,182.3,213.5,185.4,213.4,188.5L213.4,188.5z"/> <path fill="#040000" d="M201.4,147.1c-0.5,0-1-0.1-1.5-0.2c-2.4-0.8-3.7-3.4-2.9-5.8l0.1-0.2c0.8-2.4,3.4-3.7,5.8-2.9 c2.4,0.8,3.7,3.4,2.9,5.8l-0.1,0.2C205.1,145.9,203.3,147.1,201.4,147.1L201.4,147.1z M176.5,215.7c-2.5,0-4.6-2-4.6-4.6 c0-2.5,2-4.6,4.6-4.7c10-0.1,18.3-8.3,18.5-18.4c0-1.6-0.1-3.1-0.5-4.7c-1.8-7.7-2.3-15.7-1.5-23.8c0.2-2.5,2.5-4.4,5-4.2 c2.5,0.2,4.4,2.5,4.2,5c-0.7,7.1-0.2,14.2,1.3,20.9c0.5,2.2,0.7,4.6,0.7,6.9C203.9,203.2,191.5,215.5,176.5,215.7 C176.5,215.7,176.5,215.7,176.5,215.7z M62.7,33.1c2.6-2.1,28.5-18.9,37.5-19.7c9-0.7-0.8,9.8-0.8,9.8S73.7,34.6,69.2,39.7"/></g>
</svg>